<svg xmlns="http://www.w3.org/2000/svg" viewBox="0 0 111.53 145.66"><defs><style>.a{fill:#e60023;}</style></defs><path class="a" d="M328.68,369.38s-2.84,25.09-49.71,57.28-49.24,40.72-48.29,44,14.67-.47,31.72-7.1,23.67-8.73,29.82-8.73,27,2.58,27,19.62-13.73,6.15-14.68,4.26,4.74-10.41-9.47-10.41c-15.45-.81-78.69,36.2-77.64-1.43-1.63-13.86,115.2-84.66,97.05-110.78-6.15-8.05-27.46-9.94-51.6,2.37S232.1,377.9,225,377.43C185.56,356.42,336,305.46,328.68,369.38Z" transform="translate(-217.4 -338.25)"/></svg>